# xmcd
#
# Track frame offsets: 
#        150
#        16842
#        39279
#        59893
#        80264
#        101492
#        121764
#        138026
#        156108
#        175599
#        196537
#        214700
#        232903
#        252391
#        272043
#        292858
#        313397
#        330733
#
# Disc length: 4680 seconds
#
# Revision: 3
# Processed by: cddbd v1.5.2PL0 Copyright (c) Steve Scherf et al.
# Submitted via: ExactAudioCopy v0.99pb5
#
DISCID=eb124612
DTITLE=Diane Warren - Diane Warren Presents LOVE SONGS
DYEAR=2005
DGENRE=Other
TTITLE0=Faith Hill - There You'll Be
TTITLE1=Aerosmith - I Don't Want To Miss A Thing
TTITLE2=Celine Dion - Because You Loved Me
TTITLE3=Toni Braxton - Un-Break My Heart
TTITLE4=Eric Clapton - Blue Eyes Blue
TTITLE5=Starship - Nothing's Gonna Stop Us Now
TTITLE6=LeAnn Rimes - Can't Fight The Moonlight
TTITLE7=Chicago - Look Away
TTITLE8=Bad English - When I See You Smile
TTITLE9=Taylor Dayne - Love Will Lead You Back
TTITLE10=Trisha Yearwood - How Do I Live
TTITLE11=Cher - If I Could Turn Back Time
TTITLE12=Michael Bolton - Time, Love and Tenderness
TTITLE13=Whitney Houston - I Learned From The Best
TTITLE14=Christina Aguilera - I Turn To You
TTITLE15=Brandy - Have You Ever ?
TTITLE16=Expose - I'll Never Get Over You Getting Over Me
TTITLE17=Shanice - Saving Forever For You
EXTD=
EXTT0=
EXTT1=
EXTT2=
EXTT3=
EXTT4=
EXTT5=
EXTT6=
EXTT7=
EXTT8=
EXTT9=
EXTT10=
EXTT11=
EXTT12=
EXTT13=
EXTT14=
EXTT15=
EXTT16=
EXTT17=
PLAYORDER=
